<?xml version="1.0" standalone="no"?>
<!DOCTYPE svg PUBLIC "-//W3C//DTD SVG 20010904//EN"
 "http://www.w3.org/TR/2001/REC-SVG-20010904/DTD/svg10.dtd">
<svg version="1.0" xmlns="http://www.w3.org/2000/svg"
 width="937.000000pt" height="866.000000pt" viewBox="0 0 937.000000 866.000000"
 preserveAspectRatio="xMidYMid meet">

<g transform="translate(0.000000,866.000000) scale(0.100000,-0.100000)"
fill="#000000" stroke="none">
<path d="M0 4330 l0 -4330 4685 0 4685 0 0 4330 0 4330 -4685 0 -4685 0 0
-4330z m5248 1705 l158 -97 63 -278 c34 -153 61 -288 59 -299 -2 -11 -104
-193 -228 -405 l-225 -385 -201 -1 -201 0 -69 -81 c-38 -45 -76 -90 -86 -102
-14 -19 -19 -20 -44 -8 -26 12 -300 177 -316 190 -7 6 -24 82 -99 438 l-29
143 44 77 c24 43 68 119 98 169 29 51 112 194 183 318 l130 225 182 1 183 0
102 100 c66 64 109 99 120 96 9 -2 88 -48 176 -101z m-1400 -2253 c98 -52 155
-130 172 -239 14 -81 13 -655 -1 -729 -22 -123 -105 -218 -216 -250 -83 -24
-212 -16 -278 18 -64 33 -118 89 -147 153 -23 49 -23 58 -26 427 -3 417 -1
440 58 522 38 52 78 83 139 108 68 27 239 21 299 -10z m-992 -4 c83 -27 152
-87 185 -160 19 -44 23 -70 23 -148 0 -113 -21 -172 -85 -231 l-40 -37 43 -44
c24 -23 55 -65 68 -93 22 -44 25 -63 25 -165 0 -105 -2 -119 -26 -165 -46 -86
-103 -131 -200 -159 -44 -13 -94 -16 -245 -14 l-189 3 -3 618 -2 617 190 0
c167 0 197 -3 256 -22z m1770 -178 c48 -110 91 -200 94 -200 3 0 44 89 91 198
l86 197 102 3 101 3 -2 -618 -3 -618 -95 0 -95 0 -5 400 -5 400 -85 -167 c-47
-93 -87 -168 -91 -168 -3 0 -41 74 -85 165 -43 90 -82 164 -86 165 -4 0 -9
-179 -10 -397 l-3 -398 -97 -3 -98 -3 0 621 0 620 99 0 98 0 89 -200z m1268
192 c2 -4 52 -224 110 -487 140 -641 156 -714 156 -731 0 -11 -20 -14 -100
-14 -114 0 -100 -13 -124 124 -7 43 -19 82 -25 86 -7 4 -64 5 -127 3 -63 -1
-120 -3 -128 -3 -9 0 -18 -23 -26 -67 -6 -38 -16 -85 -21 -105 l-10 -38 -94 0
c-52 0 -96 4 -99 8 -4 7 230 1106 254 1195 l11 37 109 0 c60 0 111 -4 114 -8z
m911 -366 l140 -370 5 370 5 369 100 0 100 0 3 -595 c1 -327 0 -605 -3 -617
-5 -22 -10 -23 -105 -23 -88 0 -101 2 -110 19 -5 11 -69 174 -141 362 -72 189
-134 348 -137 354 -4 5 -9 -156 -12 -360 l-5 -370 -95 0 -95 0 -3 605 c-1 333
0 611 3 618 3 9 31 12 107 10 l102 -3 141 -369z"/>
<path d="M4973 6029 c-46 -44 -83 -82 -83 -84 0 -3 61 -5 135 -5 74 0 135 2
135 5 0 11 -92 165 -98 165 -4 0 -44 -37 -89 -81z"/>
<path d="M5103 6093 c2 -5 23 -41 47 -80 l42 -73 81 0 c47 0 77 4 72 9 -17 15
-247 152 -242 144z"/>
<path d="M4484 5887 c-12 -17 -97 -162 -190 -322 -92 -159 -174 -301 -183
-315 l-15 -25 29 25 c44 37 695 662 695 666 0 2 -71 4 -157 4 l-158 0 -21 -33z"/>
<path d="M4615 5688 c-132 -127 -298 -287 -369 -356 -71 -68 -118 -119 -105
-112 13 7 98 56 189 108 311 179 675 389 775 446 55 32 104 62 109 66 5 5 -1
24 -14 44 l-22 36 -161 0 -162 -1 -240 -231z"/>
<path d="M5210 5913 c0 -5 9 -19 19 -32 l18 -24 54 31 54 32 -72 0 c-40 0 -73
-3 -73 -7z"/>
<path d="M5325 5879 c-27 -17 -54 -35 -59 -39 -5 -5 43 -96 110 -209 65 -110
119 -199 120 -198 6 6 -104 471 -112 474 -5 1 -31 -11 -59 -28z"/>
<path d="M5015 5699 c-116 -66 -250 -144 -300 -173 -49 -29 -203 -118 -341
-197 -139 -79 -244 -145 -235 -147 9 -1 156 18 326 43 171 25 387 57 480 70
94 14 229 34 300 45 72 11 157 23 190 28 33 4 59 13 58 18 -3 19 -253 434
-261 434 -4 0 -102 -54 -217 -121z"/>
<path d="M5255 5320 c-104 -15 -287 -42 -405 -59 -118 -18 -336 -50 -484 -72
-148 -21 -271 -40 -273 -42 -1 -2 16 -14 40 -27 23 -13 181 -104 351 -202 305
-175 310 -178 330 -160 12 11 166 146 344 301 177 156 322 285 322 287 0 6
-23 4 -225 -26z"/>
<path d="M5150 5024 c-179 -157 -326 -289 -328 -293 -2 -6 211 -127 233 -132
10 -2 21 15 135 211 59 101 275 472 287 493 2 4 3 7 1 7 -2 0 -149 -129 -328
-286z"/>
<path d="M4078 5114 c6 -11 76 -131 156 -269 l145 -250 143 -3 143 -3 57 68
c31 37 56 68 55 69 -1 1 -157 91 -347 199 -190 109 -349 200 -353 202 -5 3 -4
-3 1 -13z"/>
<path d="M4076 5049 c4 -19 26 -128 50 -242 24 -114 44 -210 44 -212 0 -3 41
-5 91 -5 77 0 90 2 85 15 -5 14 -264 464 -273 474 -2 3 0 -11 3 -30z"/>
<path d="M4746 4653 l-48 -58 75 -3 c42 -2 113 -2 158 0 l83 3 -106 58 c-57
31 -107 57 -109 57 -3 0 -26 -26 -53 -57z"/>
<path d="M4216 4561 c7 -7 129 -83 238 -149 5 -3 7 -1 4 4 -3 5 -24 42 -48 82
l-42 72 -81 0 c-49 0 -77 -4 -71 -9z"/>
<path d="M4400 4563 c0 -11 92 -163 98 -162 7 0 121 132 135 155 7 12 -14 14
-113 14 -66 0 -120 -3 -120 -7z"/>
<path d="M3640 3629 c-85 -34 -92 -73 -88 -481 3 -352 5 -366 64 -404 37 -25
106 -24 141 2 62 45 63 54 63 437 0 325 -1 350 -20 386 -30 59 -98 85 -160 60z"/>
<path d="M2623 3624 c-10 -4 -13 -49 -13 -175 l0 -169 78 0 c128 0 175 46 176
171 0 114 -49 166 -165 174 -35 3 -70 2 -76 -1z"/>
<path d="M2623 3124 c-10 -4 -13 -53 -13 -196 l0 -190 89 4 c79 3 93 6 116 28
45 42 59 79 59 160 1 89 -26 150 -75 176 -31 16 -153 28 -176 18z"/>
<path d="M5772 3433 c-6 -26 -29 -146 -52 -267 -32 -169 -39 -220 -30 -226 14
-9 185 -8 193 0 6 6 -87 527 -95 536 -3 3 -11 -16 -16 -43z"/>
</g>
</svg>
